<mxfile host="app.diagrams.net" agent="Mozilla/5.0 (Windows NT 10.0; Win64; x64) AppleWebKit/537.36 (KHTML, like Gecko) Chrome/127.0.0.0 Safari/537.36 Edg/127.0.0.0" version="24.7.6">
  <diagram name="Seite-1" id="Tl65TCH65BJ5Vpfujt1q">
    <mxGraphModel dx="832" dy="479" grid="1" gridSize="10" guides="1" tooltips="1" connect="1" arrows="1" fold="1" page="1" pageScale="1" pageWidth="827" pageHeight="1169" math="0" shadow="0">
      <root>
        <mxCell id="0" />
        <mxCell id="1" parent="0" />
        <mxCell id="Dz2L02uFGs0sSnrUQ3FG-4" style="edgeStyle=orthogonalEdgeStyle;rounded=0;orthogonalLoop=1;jettySize=auto;html=1;exitX=1;exitY=0.25;exitDx=0;exitDy=0;entryX=0;entryY=0.25;entryDx=0;entryDy=0;" edge="1" parent="1" source="Dz2L02uFGs0sSnrUQ3FG-1" target="Dz2L02uFGs0sSnrUQ3FG-2">
          <mxGeometry relative="1" as="geometry" />
        </mxCell>
        <mxCell id="Dz2L02uFGs0sSnrUQ3FG-5" value="Context" style="edgeLabel;html=1;align=center;verticalAlign=middle;resizable=0;points=[];" vertex="1" connectable="0" parent="Dz2L02uFGs0sSnrUQ3FG-4">
          <mxGeometry x="-0.2333" y="1" relative="1" as="geometry">
            <mxPoint x="14" y="-14" as="offset" />
          </mxGeometry>
        </mxCell>
        <mxCell id="Dz2L02uFGs0sSnrUQ3FG-1" value="Main Program" style="rounded=1;whiteSpace=wrap;html=1;" vertex="1" parent="1">
          <mxGeometry x="160" y="510" width="120" height="60" as="geometry" />
        </mxCell>
        <mxCell id="Dz2L02uFGs0sSnrUQ3FG-6" style="edgeStyle=orthogonalEdgeStyle;rounded=0;orthogonalLoop=1;jettySize=auto;html=1;exitX=1;exitY=0.25;exitDx=0;exitDy=0;entryX=0;entryY=0.25;entryDx=0;entryDy=0;" edge="1" parent="1" source="Dz2L02uFGs0sSnrUQ3FG-2" target="Dz2L02uFGs0sSnrUQ3FG-3">
          <mxGeometry relative="1" as="geometry" />
        </mxCell>
        <mxCell id="Dz2L02uFGs0sSnrUQ3FG-7" value="Request" style="edgeLabel;html=1;align=center;verticalAlign=middle;resizable=0;points=[];" vertex="1" connectable="0" parent="Dz2L02uFGs0sSnrUQ3FG-6">
          <mxGeometry x="0.075" y="3" relative="1" as="geometry">
            <mxPoint x="-3" y="-12" as="offset" />
          </mxGeometry>
        </mxCell>
        <mxCell id="Dz2L02uFGs0sSnrUQ3FG-10" style="edgeStyle=orthogonalEdgeStyle;rounded=0;orthogonalLoop=1;jettySize=auto;html=1;exitX=0;exitY=0.75;exitDx=0;exitDy=0;entryX=1;entryY=0.75;entryDx=0;entryDy=0;" edge="1" parent="1" source="Dz2L02uFGs0sSnrUQ3FG-2" target="Dz2L02uFGs0sSnrUQ3FG-1">
          <mxGeometry relative="1" as="geometry" />
        </mxCell>
        <mxCell id="Dz2L02uFGs0sSnrUQ3FG-11" value="Context" style="edgeLabel;html=1;align=center;verticalAlign=middle;resizable=0;points=[];" vertex="1" connectable="0" parent="Dz2L02uFGs0sSnrUQ3FG-10">
          <mxGeometry x="0.3" relative="1" as="geometry">
            <mxPoint x="8" y="15" as="offset" />
          </mxGeometry>
        </mxCell>
        <mxCell id="Dz2L02uFGs0sSnrUQ3FG-2" value="Handler" style="rounded=1;whiteSpace=wrap;html=1;" vertex="1" parent="1">
          <mxGeometry x="390" y="510" width="120" height="60" as="geometry" />
        </mxCell>
        <mxCell id="Dz2L02uFGs0sSnrUQ3FG-8" style="edgeStyle=orthogonalEdgeStyle;rounded=0;orthogonalLoop=1;jettySize=auto;html=1;exitX=0;exitY=0.75;exitDx=0;exitDy=0;entryX=1;entryY=0.75;entryDx=0;entryDy=0;" edge="1" parent="1" source="Dz2L02uFGs0sSnrUQ3FG-3" target="Dz2L02uFGs0sSnrUQ3FG-2">
          <mxGeometry relative="1" as="geometry" />
        </mxCell>
        <mxCell id="Dz2L02uFGs0sSnrUQ3FG-9" value="Response" style="edgeLabel;html=1;align=center;verticalAlign=middle;resizable=0;points=[];" vertex="1" connectable="0" parent="Dz2L02uFGs0sSnrUQ3FG-8">
          <mxGeometry x="0.05" y="1" relative="1" as="geometry">
            <mxPoint y="14" as="offset" />
          </mxGeometry>
        </mxCell>
        <mxCell id="Dz2L02uFGs0sSnrUQ3FG-3" value="Service" style="rounded=1;whiteSpace=wrap;html=1;" vertex="1" parent="1">
          <mxGeometry x="590" y="510" width="120" height="60" as="geometry" />
        </mxCell>
      </root>
    </mxGraphModel>
  </diagram>
</mxfile>
